ffmpeg version 3.4.8-0ubuntu0.2 Copyright (c) 2000-2020 the FFmpeg developers
  built with gcc 7 (Ubuntu 7.5.0-3ubuntu1~18.04)
  configuration: --prefix=/usr --extra-version=0ubuntu0.2 --toolchain=hardened --libdir=/usr/lib/x86_64-linux-gnu --incdir=/usr/include/x86_64-linux-gnu --enable-gpl --disable-stripping --enable-avresample --enable-avisynth --enable-gnutls --enable-ladspa --enable-libass --enable-libbluray --enable-libbs2b --enable-libcaca --enable-libcdio --enable-libflite --enable-libfontconfig --enable-libfreetype --enable-libfribidi --enable-libgme --enable-libgsm --enable-libmp3lame --enable-libmysofa --enable-libopenjpeg --enable-libopenmpt --enable-libopus --enable-libpulse --enable-librubberband --enable-librsvg --enable-libshine --enable-libsnappy --enable-libsoxr --enable-libspeex --enable-libssh --enable-libtheora --enable-libtwolame --enable-libvorbis --enable-libvpx --enable-libwavpack --enable-libwebp --enable-libx265 --enable-libxml2 --enable-libxvid --enable-libzmq --enable-libzvbi --enable-omx --enable-openal --enable-opengl --enable-sdl2 --enable-libdc1394 --enable-libdrm --enable-libiec61883 --enable-chromaprint --enable-frei0r --enable-libopencv --enable-libx264 --enable-shared
  libavutil      55. 78.100 / 55. 78.100
  libavcodec     57.107.100 / 57.107.100
  libavformat    57. 83.100 / 57. 83.100
  libavdevice    57. 10.100 / 57. 10.100
  libavfilter     6.107.100 /  6.107.100
  libavresample   3.  7.  0 /  3.  7.  0
  libswscale      4.  8.100 /  4.  8.100
  libswresample   2.  9.100 /  2.  9.100
  libpostproc    54.  7.100 / 54.  7.100
[rawvideo @ 0x55c0f27cfa20] Estimating duration from bitrate, this may be inaccurate
Input #0, rawvideo, from '../../SVC-Encoder-20220109T061506Z-001/SVC-Encoder/Dataset/RollerCoaster/6f_2x2/tile_yuv/f4_t1_480x480.yuv':
  Duration: 00:00:10.00, start: 0.000000, bitrate: 82944 kb/s
    Stream #0:0: Video: rawvideo (I420 / 0x30323449), yuv420p, 480x480, 82944 kb/s, 30 tbr, 30 tbn, 30 tbc
Stream mapping:
  Stream #0:0 -> #0:0 (rawvideo (native) -> h264 (libx264))
Press [q] to stop, [?] for help
[libx264 @ 0x55c0f27dcc60] using cpu capabilities: MMX2 SSE2Fast LZCNT SSSE3 SSE4.2 AVX
[libx264 @ 0x55c0f27dcc60] profile High, level 3.0
Output #0, rawvideo, to 'RollerCoaster_f4_t1_480x480_x264_QP_36.h264':
  Metadata:
    encoder         : Lavf57.83.100
    Stream #0:0: Video: h264 (libx264), yuv420p, 480x480, q=-1--1, 30 fps, 30 tbn, 30 tbc
    Metadata:
      encoder         : Lavc57.107.100 libx264
    Side data:
      cpb: bitrate max/min/avg: 0/0/0 buffer size: 0 vbv_delay: -1
frame=  300 fps=0.0 q=42.0 LPSNR=Y:inf U:inf V:inf *:inf size=      11kB time=00:00:09.93 bitrate=   8.9kbits/s speed=26.1x    
video:11kB audio:0kB subtitle:0kB other streams:0kB global headers:0kB muxing overhead: 0.000000%
[libx264 @ 0x55c0f27dcc60] frame I:2     Avg QP:34.26  size:  1082  PSNR Mean Y:45.65 U:47.78 V:47.60 Avg:46.23 Global:45.98
[libx264 @ 0x55c0f27dcc60] frame P:77    Avg QP:37.94  size:    47  PSNR Mean Y:45.67 U:47.32 V:47.45 Avg:46.16 Global:46.01
[libx264 @ 0x55c0f27dcc60] frame B:221   Avg QP:41.61  size:    24  PSNR Mean Y:45.76 U:47.34 V:47.48 Avg:46.24 Global:46.16
[libx264 @ 0x55c0f27dcc60] consecutive B-frames:  1.3%  1.3%  0.0% 97.3%
[libx264 @ 0x55c0f27dcc60] mb I  I16..4: 58.1% 41.1%  0.8%
[libx264 @ 0x55c0f27dcc60] mb P  I16..4:  0.3%  0.3%  0.0%  P16..4:  1.2%  0.1%  0.0%  0.0%  0.0%    skip:98.1%
[libx264 @ 0x55c0f27dcc60] mb B  I16..4:  0.0%  0.0%  0.0%  B16..8:  0.7%  0.0%  0.0%  direct: 0.0%  skip:99.3%  L0:47.6% L1:52.4% BI: 0.0%
[libx264 @ 0x55c0f27dcc60] 8x8 transform intra:43.3% inter:95.7%
[libx264 @ 0x55c0f27dcc60] coded y,uvDC,uvAC intra: 1.3% 7.8% 0.0% inter: 0.0% 0.0% 0.0%
[libx264 @ 0x55c0f27dcc60] i16 v,h,dc,p: 62% 33%  3%  2%
[libx264 @ 0x55c0f27dcc60] i8 v,h,dc,ddl,ddr,vr,hd,vl,hu:  0%  0% 99%  0%  0%  0%  0%  0%  0%
[libx264 @ 0x55c0f27dcc60] i4 v,h,dc,ddl,ddr,vr,hd,vl,hu: 10% 17% 44%  0% 11%  3% 15%  0%  1%
[libx264 @ 0x55c0f27dcc60] i8c dc,h,v,p: 96%  2%  2%  0%
[libx264 @ 0x55c0f27dcc60] Weighted P-Frames: Y:0.0% UV:0.0%
[libx264 @ 0x55c0f27dcc60] ref P L0: 44.5% 15.7% 26.8% 13.0%
[libx264 @ 0x55c0f27dcc60] ref B L0: 54.1% 38.3%  7.7%
[libx264 @ 0x55c0f27dcc60] ref B L1: 65.1% 34.9%
[libx264 @ 0x55c0f27dcc60] PSNR Mean Y:45.739 U:47.340 V:47.476 Avg:46.222 Global:46.122 kb/s:8.86
